<mxfile host="app.diagrams.net" modified="2023-10-12T05:42:12.391Z" agent="Mozilla/5.0 (Windows NT 10.0; Win64; x64) AppleWebKit/537.36 (KHTML, like Gecko) Chrome/118.0.0.0 Safari/537.36" etag="672WpQLGymlMljAoAVGG" version="22.0.4" type="github">
  <diagram name="Page-1" id="6q_h9FtzISXLkknAFG1b">
    <mxGraphModel dx="691" dy="493" grid="1" gridSize="10" guides="1" tooltips="1" connect="1" arrows="1" fold="1" page="1" pageScale="1" pageWidth="827" pageHeight="1169" math="0" shadow="0">
      <root>
        <mxCell id="0" />
        <mxCell id="1" parent="0" />
        <mxCell id="Yw_mZcfW2_5spzIqeuDw-1" value="&lt;br&gt;route&lt;br&gt;setting" style="rounded=0;whiteSpace=wrap;html=1;" vertex="1" parent="1">
          <mxGeometry x="150" y="80" width="80" height="240" as="geometry" />
        </mxCell>
        <mxCell id="Yw_mZcfW2_5spzIqeuDw-2" value="operating_system" style="rounded=0;whiteSpace=wrap;html=1;" vertex="1" parent="1">
          <mxGeometry x="150" y="370" width="270" height="60" as="geometry" />
        </mxCell>
        <mxCell id="Yw_mZcfW2_5spzIqeuDw-3" value="project-manage" style="rounded=1;whiteSpace=wrap;html=1;fillColor=#fff2cc;strokeColor=#d6b656;" vertex="1" parent="1">
          <mxGeometry x="150" y="20" width="80" height="60" as="geometry" />
        </mxCell>
      </root>
    </mxGraphModel>
  </diagram>
</mxfile>
